<?xml version="1.0" standalone="no"?>
<!DOCTYPE svg PUBLIC "-//W3C//DTD SVG 20010904//EN"
 "http://www.w3.org/TR/2001/REC-SVG-20010904/DTD/svg10.dtd">
<svg version="1.0" xmlns="http://www.w3.org/2000/svg"
 width="40.000000pt" height="40.000000pt" viewBox="0 0 40.000000 40.000000"
 preserveAspectRatio="xMidYMid meet">
<g transform="translate(0.000000,40.000000) scale(0.005571,-0.005479)"
fill="#000000" stroke="none">
<path d="M4442 5769 c-23 -11 -51 -34 -62 -49 -18 -25 -28 -29 -92 -35 -40 -3
-101 -11 -135 -16 l-63 -9 -40 39 c-118 114 -306 84 -381 -61 -21 -41 -26
-136 -9 -168 9 -16 0 -27 -62 -76 -97 -76 -227 -210 -340 -349 l-92 -115 -95
-31 c-415 -137 -634 -247 -916 -459 -230 -174 -459 -448 -589 -708 -74 -147
-110 -248 -156 -439 -6 -24 -15 -43 -21 -43 -5 0 -92 79 -192 176 -376 364
-569 464 -893 464 -122 0 -124 0 -124 -22 0 -23 2 -23 133 -24 200 -1 335 -42
499 -151 110 -74 158 -115 385 -332 139 -133 192 -189 188 -201 -13 -41 -21
-255 -14 -357 13 -181 78 -418 155 -563 19 -35 34 -70 34 -78 0 -7 -26 -25
-57 -40 -56 -26 -65 -27 -255 -30 l-197 -3 -5 43 c-32 266 -44 330 -92 476
-63 190 -163 388 -191 378 -8 -3 -17 -6 -19 -6 -11 0 1 -30 60 -152 105 -219
186 -511 186 -674 l0 -64 -45 0 c-42 0 -45 2 -45 26 0 63 -66 304 -115 419
-88 207 -260 467 -299 452 -24 -9 -20 -32 12 -69 65 -76 166 -241 213 -351 63
-146 122 -335 132 -423 l5 -42 -107 -6 c-58 -3 -123 -4 -143 -2 -21 3 -40 0
-43 -4 -6 -10 39 -105 55 -115 5 -3 10 -14 10 -23 1 -9 12 -30 25 -46 l24 -30
49 27 c88 48 149 58 412 67 291 10 362 24 462 88 l37 24 28 -33 c29 -36 138
-144 145 -144 2 0 16 -10 32 -22 33 -26 22 -31 -13 -6 -23 16 -24 16 -19 -5 4
-15 2 -22 -9 -22 -8 0 -12 4 -9 8 2 4 -4 9 -15 9 -23 2 -24 -1 -2 -23 17 -16
16 -17 -20 -10 -23 4 -37 3 -37 -3 0 -7 -165 -12 -505 -13 l-505 -3 50 -67
c34 -45 59 -68 78 -72 134 -29 714 -90 1022 -108 301 -17 1417 -18 1720 0 460
27 842 69 1095 123 l140 29 825 0 825 -1 23 28 c13 15 29 39 36 53 l14 25
-905 0 -904 0 -18 53 c-10 30 -28 67 -40 83 l-22 29 998 2 997 3 23 40 c39 69
48 66 -207 64 -127 -1 -233 1 -236 4 -11 11 38 198 81 313 62 162 143 312 236
437 77 103 91 137 55 137 -15 0 -98 -98 -155 -182 -57 -84 -151 -275 -190
-385 -38 -107 -81 -266 -81 -303 0 -18 -36 -29 -72 -22 -22 4 -22 24 -3 161
28 194 113 442 209 611 47 82 53 97 41 109 -13 13 -17 12 -35 -4 -58 -52 -178
-325 -225 -510 -19 -71 -39 -178 -46 -237 -7 -60 -15 -112 -18 -117 -7 -10
-1545 -20 -1555 -10 -3 3 3 31 14 63 10 31 33 121 51 199 26 120 38 151 71
202 21 33 58 99 81 147 l42 87 100 1 c65 0 130 7 185 20 256 61 365 135 737
500 333 327 458 417 668 483 155 48 352 60 539 32 124 -19 118 -19 114 7 -2
18 -12 24 -48 30 -105 19 -270 26 -386 17 -194 -15 -339 -64 -504 -171 -107
-68 -182 -134 -385 -333 -210 -206 -303 -290 -400 -360 -150 -108 -319 -170
-496 -182 -113 -7 -112 -8 -80 75 68 172 101 381 101 641 0 217 9 259 81 382
66 114 216 291 328 388 l59 51 -5 -118 c-4 -88 -3 -121 6 -127 24 -14 31 12
42 151 6 76 16 145 21 152 24 29 35 10 47 -85 15 -116 18 -123 42 -123 24 0
25 28 3 163 -14 88 -14 101 -1 114 20 21 30 13 87 -73 28 -41 54 -74 59 -74 5
0 14 6 20 13 8 11 -2 33 -44 97 -38 56 -54 88 -50 101 4 11 10 19 13 19 4 0
34 -22 67 -50 64 -53 95 -63 95 -31 0 12 -26 40 -65 71 -57 45 -64 54 -54 71
17 32 31 32 100 0 56 -27 65 -29 78 -16 20 20 6 32 -69 65 -30 13 -56 25 -58
26 -1 1 2 13 8 28 10 26 12 27 77 24 62 -3 68 -1 68 17 0 16 -9 21 -54 28 -30
4 -56 8 -57 10 -1 1 4 29 12 62 35 150 -5 290 -115 402 -107 108 -560 296
-827 343 -66 12 -72 15 -95 52 -54 87 -154 120 -237 77z m-511 -100 c47 -16
97 -66 111 -111 6 -21 14 -38 18 -38 3 0 16 11 27 24 29 33 95 41 308 40 133
-1 195 -6 285 -23 222 -43 418 -104 617 -192 150 -66 197 -93 247 -144 43 -43
46 -58 9 -48 -53 15 -186 8 -221 -10 -113 -61 -124 -221 -18 -286 51 -32 151
-54 223 -49 35 2 63 2 63 0 0 -1 -7 -17 -17 -35 -44 -86 -176 -232 -200 -222
-8 2 -12 1 -9 -4 6 -9 -26 -24 -74 -36 -22 -5 -23 -5 -6 6 15 9 16 13 5 20
-18 11 -32 11 -25 0 3 -5 -10 -12 -29 -15 -22 -4 -33 -11 -29 -18 17 -27 -225
22 -263 54 -16 13 -34 1 -27 -17 3 -8 30 -30 58 -49 50 -33 123 -58 209 -71
l39 -6 -124 -127 c-125 -128 -194 -212 -240 -290 -13 -23 -28 -39 -33 -35 -4
5 -5 2 -1 -5 4 -6 -2 -24 -12 -40 -11 -15 -21 -31 -22 -37 -1 -5 -8 -25 -15
-43 -26 -60 -35 -145 -35 -311 0 -263 -34 -477 -101 -636 -29 -70 -109 -236
-119 -247 -6 -7 -33 -47 -60 -88 -58 -89 -177 -220 -263 -288 -73 -58 -209
-141 -290 -176 l-57 -26 0 426 c1 235 -1 429 -4 432 -3 2 -11 2 -19 -1 -17 -6
-18 -16 -57 -457 -16 -190 -34 -379 -38 -420 -5 -41 -7 -78 -5 -82 2 -3 38
-15 81 -25 66 -15 84 -24 125 -64 26 -25 47 -53 47 -62 0 -26 -17 -20 -36 13
-27 46 -160 92 -214 75 -34 -11 -23 -22 49 -49 37 -15 77 -33 87 -41 17 -13
12 -14 -54 -15 -59 0 -78 4 -102 21 -34 25 -75 20 -85 -11 -10 -31 -18 -25
-51 37 -17 32 -54 100 -83 152 -196 349 -274 564 -364 996 -9 42 -17 61 -30
63 -15 3 -17 -6 -17 -70 0 -40 7 -104 16 -143 8 -38 19 -95 24 -125 15 -90
107 -394 145 -476 57 -123 74 -167 68 -176 -3 -6 -2 -8 4 -5 9 6 58 -81 50
-89 -10 -10 -122 -25 -144 -19 -16 4 -22 2 -18 -5 11 -18 -7 -11 -44 18 -20
15 -63 39 -96 54 l-60 27 -21 68 c-32 105 -61 152 -139 230 -58 56 -94 81
-176 122 -101 50 -250 96 -276 86 -26 -9 -12 -24 40 -40 75 -25 256 -120 309
-163 61 -50 106 -110 135 -183 28 -69 34 -113 16 -115 -7 -1 -19 -2 -27 -3
-19 -1 -29 -31 -16 -46 6 -7 32 -18 58 -25 104 -26 242 -120 242 -165 0 -24
-27 -17 -34 9 -3 14 -24 35 -50 50 -53 31 -165 62 -189 53 -33 -12 -18 -35 36
-53 28 -9 72 -28 97 -43 l45 -26 -440 -3 c-242 -1 -447 1 -455 4 -8 4 -18 7
-22 6 -14 -3 -214 101 -263 136 -75 55 -145 123 -138 135 3 5 1 7 -4 4 -18
-11 -119 132 -169 238 -57 122 -79 194 -104 350 -44 266 -14 563 82 810 188
485 525 844 1038 1107 136 69 442 192 462 186 10 -4 -101 -146 -205 -261 -50
-56 -67 -81 -59 -89 23 -23 245 198 444 443 158 195 306 350 404 425 73 56 76
57 107 45 84 -34 147 -33 203 4 39 26 25 39 -39 36 -91 -4 -160 40 -177 114
-16 69 18 130 85 153 40 14 56 14 96 1z m444 -3485 c-43 -148 -45 -159 -29
-171 10 -7 27 -13 39 -13 45 0 123 -31 163 -66 53 -45 79 -91 62 -108 -10 -8
-14 -7 -18 4 -11 33 -81 87 -125 99 -109 27 -159 2 -67 -34 28 -11 63 -30 78
-42 l27 -22 -60 -1 c-48 0 -68 5 -97 25 -48 32 -64 32 -83 -5 -9 -16 -21 -30
-28 -30 -8 0 -8 3 2 9 8 5 11 16 8 25 -4 9 -2 16 3 16 6 0 10 4 10 10 0 5 -7
7 -16 3 -8 -3 -13 -12 -10 -19 3 -7 0 -16 -6 -20 -7 -4 -8 -3 -4 4 4 7 2 12
-3 12 -6 0 -11 -8 -12 -17 0 -16 -2 -15 -9 2 -11 24 -75 201 -84 231 -5 18 7
30 87 83 51 33 108 77 127 96 18 19 37 32 42 29 5 -3 7 -2 6 3 -3 8 35 63 40
59 1 -2 -18 -74 -43 -162z"/>
<path d="M3868 5634 c-17 -17 -6 -33 26 -40 46 -8 78 -44 74 -80 -3 -27 -6
-29 -55 -32 -59 -3 -72 -24 -27 -44 27 -13 104 2 132 25 31 25 -2 119 -52 152
-28 19 -88 30 -98 19z"/>
<path d="M4404 5340 c-54 -22 -72 -100 -31 -138 52 -49 147 -12 147 57 0 57
-66 102 -116 81z"/>
<path d="M2371 1401 c-22 -22 -18 -66 8 -77 20 -9 2220 -13 2556 -5 l240 6 3
33 c7 67 118 62 -1404 62 -1342 0 -1385 -1 -1403 -19z"/>
</g>
</svg>
